<svg width="64" height="45" viewBox="0 0 64 45" fill="none" xmlns="http://www.w3.org/2000/svg">
<rect x="0.799988" width="62.4" height="45" rx="4" fill="#26A6D1"/>
<path d="M10.8366 15.75L4.6745 29.4315H12.0514L12.9659 27.2501H15.0562L15.9708 29.4315H24.0906V27.7666L24.8141 29.4315H29.0144L29.7379 27.7314V29.4315H46.625L48.6783 27.3067L50.601 29.4315L59.2746 29.4491L53.0931 22.6289L59.2746 15.75H50.7356L48.7367 17.8355L46.8745 15.75H28.5036L26.9261 19.2813L25.3116 15.75H17.9501V17.3583L17.1312 15.75C17.1312 15.75 10.8366 15.75 10.8366 15.75ZM12.2639 17.6928H15.8598L19.9471 26.9703V17.6928H23.8861L27.0431 24.3447L29.9526 17.6928H33.872V27.5102H31.4871L31.4677 19.8173L27.9908 27.5102H25.8574L22.361 19.8173V27.5102H17.4548L16.5247 25.3092H11.4996L10.5714 27.5082H7.94267L12.2639 17.6928ZM36.0539 17.6928H45.7513L48.7173 20.9072L51.7788 17.6928H54.7448L50.2383 22.627L54.7448 27.5044H51.6443L48.6783 24.2527L45.6012 27.5044H36.0539V17.6928ZM14.0132 19.3538L12.3576 23.2746H15.6669L14.0132 19.3538ZM38.4487 19.7255V21.5176H43.739V23.5151H38.4487V25.4717H44.3825L47.1397 22.5899L44.4995 19.7238H38.4487V19.7255Z" fill="white"/>
</svg>
