<svg xmlns="http://www.w3.org/2000/svg" width="46" height="32" viewBox="0 0 46 32" fill="none"><rect width="45" height="32" x=".5" fill="#fff" rx="4"/><path fill="#00579F" d="M20.534 21.928H17.45l1.93-11.802h3.085l-1.93 11.803ZM31.72 10.415a7.678 7.678 0 0 0-2.768-.503c-3.047 0-5.193 1.607-5.206 3.905-.025 1.695 1.536 2.636 2.704 3.202 1.194.577 1.6.954 1.6 1.47-.012.79-.965 1.154-1.853 1.154-1.232 0-1.892-.188-2.895-.628l-.407-.188-.431 2.65c.723.325 2.057.615 3.44.628 3.238 0 5.346-1.583 5.37-4.031.013-1.344-.811-2.373-2.589-3.215-1.08-.54-1.74-.904-1.74-1.456.013-.503.559-1.017 1.777-1.017a5.29 5.29 0 0 1 2.298.452l.28.125.42-2.548ZM35.82 17.747l1.232-3.302c-.013.025.253-.69.406-1.13l.215 1.017s.585 2.825.711 3.415H35.82Zm3.808-7.621h-2.386c-.736 0-1.295.213-1.613.98l-4.583 10.822h3.238l.647-1.77h3.962c.088.414.368 1.77.368 1.77h2.857l-2.49-11.802ZM14.872 10.126l-3.022 8.048-.33-1.632c-.559-1.884-2.31-3.93-4.266-4.947l2.768 10.321h3.262l4.85-11.79h-3.262Z"/><path fill="#FAA61A" d="M9.044 10.126H4.08l-.05.239c3.872.979 6.436 3.34 7.49 6.177l-1.08-5.424c-.177-.754-.723-.967-1.396-.992Z"/></svg>