<svg width="44" height="32" viewBox="0 0 44 32" fill="none" xmlns="http://www.w3.org/2000/svg">
<rect width="44" height="32" rx="4" fill="white"/>
<path d="M25.5302 6.50586H18.4482V19.3765H25.5302V6.50586Z" fill="#FF5A00"/>
<path d="M18.9199 12.941C18.9199 10.326 20.1352 8.00518 21.9999 6.50563C20.6275 5.41409 18.8963 4.75439 17.008 4.75439C12.5346 4.75439 8.91504 8.41584 8.91504 12.941C8.91504 17.4661 12.5346 21.1276 17.008 21.1276C18.8963 21.1276 20.6275 20.4679 21.9999 19.3763C20.1325 17.898 18.9199 15.5559 18.9199 12.941Z" fill="#EB001B"/>
<path d="M35.0849 12.941C35.0849 17.4661 31.4653 21.1276 26.992 21.1276C25.1036 21.1276 23.3724 20.4679 22 19.3763C23.8884 17.8741 25.08 15.5559 25.08 12.941C25.08 10.326 23.8648 8.00518 22 6.50563C23.3698 5.41409 25.101 4.75439 26.9893 4.75439C31.4653 4.75439 35.0849 8.43968 35.0849 12.941Z" fill="#F79E1B"/>
<path d="M13.6443 27.3355V25.9233C13.6443 25.3832 13.3303 25.0294 12.7914 25.0294C12.5219 25.0294 12.2288 25.1227 12.0274 25.4298C11.8704 25.172 11.6454 25.0294 11.3079 25.0294C11.0829 25.0294 10.8579 25.1007 10.6799 25.3585V25.076H10.209V27.3355H10.6799V26.0879C10.6799 25.6875 10.8814 25.4983 11.1954 25.4983C11.5093 25.4983 11.6663 25.7095 11.6663 26.0879V27.3355H12.1373V26.0879C12.1373 25.6875 12.3623 25.4983 12.6527 25.4983C12.9667 25.4983 13.1236 25.7095 13.1236 26.0879V27.3355H13.6443ZM20.6301 25.076H19.8661V24.3933H19.3951V25.076H18.9687V25.523H19.3951V26.5595C19.3951 27.0777 19.5966 27.3821 20.1356 27.3821C20.3371 27.3821 20.5621 27.3108 20.719 27.2176L20.583 26.7926C20.4469 26.8858 20.29 26.9105 20.1775 26.9105C19.9524 26.9105 19.8635 26.7679 19.8635 26.5348V25.523H20.6275V25.076H20.6301ZM24.6279 25.0267C24.3585 25.0267 24.1779 25.1693 24.0654 25.3557V25.0733H23.5945V27.3328H24.0654V26.0604C24.0654 25.6848 24.2224 25.4709 24.5154 25.4709C24.6044 25.4709 24.7169 25.4956 24.8085 25.5175L24.9445 25.0459C24.8503 25.0267 24.7169 25.0267 24.6279 25.0267ZM18.5867 25.2625C18.3617 25.098 18.0477 25.0267 17.7102 25.0267C17.1712 25.0267 16.8128 25.3091 16.8128 25.7561C16.8128 26.1317 17.0823 26.3456 17.5532 26.4142L17.7782 26.4388C18.0242 26.4855 18.1602 26.5568 18.1602 26.6747C18.1602 26.8392 17.9797 26.9571 17.6657 26.9571C17.3517 26.9571 17.1032 26.8392 16.9462 26.7213L16.7212 27.0969C16.9671 27.2861 17.3046 27.3794 17.6422 27.3794C18.2701 27.3794 18.6312 27.0723 18.6312 26.65C18.6312 26.2496 18.3381 26.0385 17.8907 25.9672L17.6657 25.9425C17.4642 25.9179 17.3073 25.8712 17.3073 25.7314C17.3073 25.5669 17.4643 25.4736 17.7128 25.4736C17.9823 25.4736 18.2518 25.5915 18.3878 25.6628L18.5867 25.2625ZM31.1166 25.0267C30.8471 25.0267 30.6666 25.1693 30.5541 25.3557V25.0733H30.0831V27.3328H30.5541V26.0604C30.5541 25.6848 30.7111 25.4709 31.0041 25.4709C31.0931 25.4709 31.2056 25.4956 31.2971 25.5175L31.4332 25.0514C31.3416 25.0267 31.2082 25.0267 31.1166 25.0267ZM25.0989 26.2058C25.0989 26.8885 25.5489 27.3821 26.2449 27.3821C26.5588 27.3821 26.7839 27.3108 27.0089 27.1244L26.7838 26.724C26.6033 26.8666 26.4254 26.9352 26.2213 26.9352C25.8393 26.9352 25.5698 26.6527 25.5698 26.2058C25.5698 25.7807 25.8393 25.4983 26.2213 25.4764C26.4228 25.4764 26.6033 25.5477 26.7838 25.6875L27.0089 25.2872C26.7839 25.098 26.5588 25.0294 26.2449 25.0294C25.5489 25.0267 25.0989 25.523 25.0989 26.2058ZM29.4552 26.2058V25.076H28.9842V25.3585C28.8273 25.1473 28.6022 25.0294 28.3092 25.0294C27.7022 25.0294 27.2313 25.523 27.2313 26.2058C27.2313 26.8885 27.7022 27.3821 28.3092 27.3821C28.6232 27.3821 28.8482 27.2642 28.9842 27.0531V27.3355H29.4552V26.2058ZM27.7258 26.2058C27.7258 25.8054 27.9717 25.4764 28.3772 25.4764C28.7592 25.4764 29.0287 25.7835 29.0287 26.2058C29.0287 26.6061 28.7592 26.9352 28.3772 26.9352C27.9743 26.9105 27.7258 26.6034 27.7258 26.2058ZM22.09 25.0267C21.4621 25.0267 21.0121 25.4983 21.0121 26.203C21.0121 26.9105 21.4621 27.3794 22.1136 27.3794C22.4276 27.3794 22.7415 27.2861 22.9901 27.0723L22.7651 26.7185C22.5845 26.8611 22.3595 26.9544 22.1371 26.9544C21.8441 26.9544 21.5537 26.8118 21.4856 26.4142H23.079C23.079 26.3429 23.079 26.2963 23.079 26.225C23.1 25.4983 22.6944 25.0267 22.09 25.0267ZM22.09 25.4517C22.3831 25.4517 22.5845 25.6409 22.629 25.9919H21.5066C21.5511 25.6875 21.7525 25.4517 22.09 25.4517ZM33.7906 26.2058V24.1821H33.3196V25.3585C33.1626 25.1473 32.9376 25.0294 32.6446 25.0294C32.0376 25.0294 31.5666 25.523 31.5666 26.2058C31.5666 26.8885 32.0376 27.3821 32.6446 27.3821C32.9585 27.3821 33.1836 27.2642 33.3196 27.0531V27.3355H33.7906V26.2058ZM32.0611 26.2058C32.0611 25.8054 32.3071 25.4764 32.7126 25.4764C33.0946 25.4764 33.3641 25.7835 33.3641 26.2058C33.3641 26.6061 33.0946 26.9352 32.7126 26.9352C32.3071 26.9105 32.0611 26.6034 32.0611 26.2058ZM16.2947 26.2058V25.076H15.8238V25.3585C15.6668 25.1473 15.4418 25.0294 15.1487 25.0294C14.5417 25.0294 14.0708 25.523 14.0708 26.2058C14.0708 26.8885 14.5417 27.3821 15.1487 27.3821C15.4627 27.3821 15.6877 27.2642 15.8238 27.0531V27.3355H16.2947V26.2058ZM14.5444 26.2058C14.5444 25.8054 14.7903 25.4764 15.1958 25.4764C15.5778 25.4764 15.8473 25.7835 15.8473 26.2058C15.8473 26.6061 15.5778 26.9352 15.1958 26.9352C14.7903 26.9105 14.5444 26.6034 14.5444 26.2058Z" fill="#080808"/>
</svg>
