<svg width="50" height="26" viewBox="0 0 50 26" fill="none" xmlns="http://www.w3.org/2000/svg">
<rect width="49.5611" height="26" rx="4" fill="white"/>
<path fill-rule="evenodd" clip-rule="evenodd" d="M13 10.4694H6.73142V9H13V10.4694Z" fill="url(#paint0_linear_1239_24470)"/>
<path fill-rule="evenodd" clip-rule="evenodd" d="M11.6343 13.7347H5.3657V12.2653H11.6343V13.7347Z" fill="url(#paint1_linear_1239_24470)"/>
<path fill-rule="evenodd" clip-rule="evenodd" d="M10.2686 17H4V15.5306H10.2686V17Z" fill="url(#paint2_linear_1239_24470)"/>
<path d="M20.58 14.02L21.06 11.29L18.375 14.02H20.58ZM24.48 16.285H22.875L22.515 18.37H19.815L20.175 16.285H15L15.345 14.35L22.02 7.615H24.39L23.28 14.02H24.87L24.48 16.285Z" fill="#4956ED"/>
<path d="M29.3978 18.595C27.9278 18.595 26.8478 18.305 26.1578 17.725C25.4678 17.135 25.2228 16.315 25.4228 15.265C25.5328 14.665 25.7678 14.16 26.1278 13.75C26.4978 13.34 26.9528 13.035 27.4928 12.835C27.0928 12.605 26.8078 12.29 26.6378 11.89C26.4778 11.48 26.4478 10.99 26.5478 10.42C26.7178 9.48 27.2028 8.745 28.0028 8.215C28.8028 7.675 29.8478 7.405 31.1378 7.405C31.5978 7.405 32.0228 7.44 32.4128 7.51C32.8028 7.57 33.1528 7.67 33.4628 7.81C34.0828 8.08 34.5328 8.46 34.8128 8.95C35.0928 9.43 35.1728 10 35.0528 10.66C34.9528 11.25 34.7478 11.73 34.4378 12.1C34.1378 12.47 33.7478 12.745 33.2678 12.925C33.7278 13.135 34.0628 13.45 34.2728 13.87C34.4828 14.29 34.5278 14.835 34.4078 15.505C34.2378 16.495 33.7378 17.26 32.9078 17.8C32.0778 18.33 30.9078 18.595 29.3978 18.595ZM30.4478 11.98H30.6278C31.1278 11.98 31.5128 11.9 31.7828 11.74C32.0628 11.57 32.2328 11.32 32.2928 10.99C32.3528 10.63 32.2728 10.345 32.0528 10.135C31.8328 9.925 31.4578 9.82 30.9278 9.82C30.4678 9.82 30.0778 9.9 29.7578 10.06C29.4478 10.22 29.2528 10.495 29.1728 10.885C29.1228 11.215 29.1978 11.48 29.3978 11.68C29.5978 11.88 29.9478 11.98 30.4478 11.98ZM29.8178 16.075C30.3478 16.075 30.7778 15.99 31.1078 15.82C31.4478 15.65 31.6528 15.365 31.7228 14.965C31.7828 14.595 31.6778 14.325 31.4078 14.155C31.1478 13.975 30.7678 13.88 30.2678 13.87H30.0578C29.5578 13.87 29.1578 13.965 28.8578 14.155C28.5578 14.345 28.3778 14.605 28.3178 14.935C28.2478 15.315 28.3478 15.6 28.6178 15.79C28.8978 15.98 29.2978 16.075 29.8178 16.075Z" fill="#4956ED"/>
<path d="M40.9261 18.37L41.6461 14.29H38.4661L37.7461 18.37H35.0011L36.8911 7.615H39.6511L38.9311 11.695H42.0961L42.8161 7.615H45.5611L43.6561 18.37H40.9261Z" fill="#4956ED"/>
<defs>
<linearGradient id="paint0_linear_1239_24470" x1="13" y1="17" x2="4.81818" y2="17" gradientUnits="userSpaceOnUse">
<stop stop-color="#4956ED"/>
<stop offset="1" stop-color="#4956ED" stop-opacity="0"/>
</linearGradient>
<linearGradient id="paint1_linear_1239_24470" x1="13" y1="17" x2="4.81818" y2="17" gradientUnits="userSpaceOnUse">
<stop stop-color="#4956ED"/>
<stop offset="1" stop-color="#4956ED" stop-opacity="0"/>
</linearGradient>
<linearGradient id="paint2_linear_1239_24470" x1="13" y1="17" x2="4.81818" y2="17" gradientUnits="userSpaceOnUse">
<stop stop-color="#4956ED"/>
<stop offset="1" stop-color="#4956ED" stop-opacity="0"/>
</linearGradient>
</defs>
</svg>
